<svg version="1.1" id="logo"
    xmlns="http://www.w3.org/2000/svg" x="0" y="0" viewBox="0 0 177 86" xml:space="preserve">
    <style>.logo--st0{fill:#323232}</style>
    <g id="crewbelt" transform="translate(153.69 204.987)">
        <path id="Path_40" class="logo--st0" d="M-142.2-137.7c-3.4 0-6 2.7-6 6.8s2.6 6.8 6 6.8c3 .1 5.5-2.1 5.8-5h5.7c-.3 6-5.1 10-11.4 10-6.6 0-11.4-4.9-11.4-11.9s4.9-11.9 11.4-11.9c6.2 0 10.9 3.8 11.4 9.5h-5.7c-.6-2.8-3-4.3-5.8-4.3z"/>
        <path id="Path_41" class="logo--st0" d="M-121.4-119.5h-5.5v-22.8h5.5v3.7c1.6-2.7 4.5-4.3 7.7-4.1.4 0 .8 0 1.1.1v6c-.8-.3-1.6-.4-2.4-.4-4.1 0-6.4 2.1-6.4 5.9v11.6z"/>
        <path id="Path_42" class="logo--st0" d="M-88.5-129.1h-17.1c.3 3.1 3 5.4 6.2 5.2 2.4 0 3.8-.9 4.6-2.5h5.9c-1.4 4.7-5.3 7.3-10.7 7.3-6.5 0-11.3-4.9-11.3-11.9s4.8-11.9 11.3-11.9 11.3 4.9 11.3 11.9c-.1.7-.2 1.3-.2 1.9zm-17.1-3.8h11.8c-.5-3.2-3.6-5.5-6.8-4.9-2.6.3-4.6 2.3-5 4.9z"/>
        <path id="Path_43" class="logo--st0" d="M-59.2-119.5h-7l-4.1-17.7-4.1 17.7h-7l-5.7-22.8h5.2l4 17.7 4-17.7h7l4 17.7 4-17.7h5.2l-5.5 22.8z"/>
        <path id="Path_47" class="logo--st0" d="M-40.7-142.3h-4.5v-11.4h-5.5v16.5h9.6c3.5 0 6.3 2.8 6.3 6.3s-2.8 6.3-6.3 6.3h-4.2v-9.9h-5.5v15l10 .1c6.3-.1 11.4-5.2 11.3-11.5.1-6.3-4.9-11.3-11.2-11.4z"/>
        <path id="Path_44" class="logo--st0" d="M-4.4-129.1h-17.1c.3 3.1 3 5.4 6.2 5.2 2.4 0 3.8-.9 4.6-2.5h5.9c-1.4 4.7-5.3 7.3-10.7 7.3-6.5 0-11.3-4.9-11.3-11.9s4.8-11.9 11.3-11.9S-4.2-138-4.2-131c-.1.7-.1 1.3-.2 1.9zm-17.1-3.8h11.8c-.5-3.2-3.6-5.5-6.8-4.9-2.6.3-4.6 2.3-5 4.9z"/>
        <path id="Path_45" class="logo--st0" d="M-.4-119.5v-34.2h5.5v34.2H-.4z"/>
        <path id="Path_46" class="logo--st0" d="M20.8-124c.9 0 1.7-.1 2.5-.4v4.9c-1.2.4-2.4.5-3.6.5-4.5 0-7.8-1.8-7.8-7.9v-10.6H8.3v-4.8h3.6v-6.8h5.5v6.8h5.9v4.8h-5.9v10.2c0 2.2 1 3.3 3.4 3.3z"/>
    </g>
    <g id="cb" transform="translate(153.693 153.69)">
        <path id="Path_48" d="M-114.4-102.4h18.3c11.6 0 21-9.4 21-21s-9.4-21-21-21h-8.3v-9.2h-10v18.6h17.7c6.4 0 11.6 5.2 11.6 11.6 0 6.4-5.2 11.6-11.6 11.6h-17.7v9.4z" fill="#4164ff"/>
        <path id="Path_49" class="logo--st0" d="m-114.4-153.6-18.3-.1c-11.6 0-21 9.4-21 21s9.4 21 21 21h18.3v-9.4h-17.7c-6.4 0-11.6-5.2-11.6-11.6 0-6.4 5.2-11.6 11.6-11.6h17.7v-9.3z"/>
    </g>
</svg>
