<svg version="1.1" id="logo"
    xmlns="http://www.w3.org/2000/svg" x="0" y="0" viewBox="0 0 720.6 335.8" xml:space="preserve">
    <style>.logo--st0{fill:#323232}</style>
    <path class="logo--st0" d="M44.8 262.7c-13.4 0-23.4 10.7-23.4 26.8s10 26.8 23.4 26.8c11.2 0 20.9-6.6 22.7-19.6h22.1c-1.1 23.5-20 39.2-44.8 39.2C19.1 335.8 0 316.7 0 289.4S19.1 243 44.8 243c24.1 0 42.5 15 44.6 37.3H66.9c-1.4-11.7-10.9-17.6-22.1-17.6zM126.2 334.1h-21.4v-89.2h21.4v14.5c6.4-10.5 17-16.2 30-16.2 1.6 0 3.4 0 4.5.4V267c-2.5-.9-5.7-1.4-9.3-1.4-15.9 0-25.2 8.2-25.2 23.2v45.3zM255 296.6h-67.1c2.3 13 10.9 20.5 24.1 20.5 9.5 0 15-3.6 17.9-9.8H253c-5.4 18.6-20.9 28.5-41.9 28.5-25.5 0-44.2-19.1-44.2-46.4s18.7-46.4 44.2-46.4c25.5 0 44.2 19.1 44.2 46.4.1 2.6-.1 4.9-.3 7.2zm-66.9-15.2h46c-2.3-12.5-10.5-19.6-23-19.6s-20.7 7.1-23 19.6zM369.6 334.1h-27.3l-15.9-69.4-16.1 69.4H283l-22.3-89.2h20.5l15.7 69.2 15.7-69.2h27.3l15.7 69.2 15.7-69.2h20.5l-22.2 89.2zM584.3 296.6h-67.1c2.3 13 10.9 20.5 24.1 20.5 9.5 0 15-3.6 17.8-9.8h23.2c-5.3 18.6-20.9 28.5-41.9 28.5-25.5 0-44.2-19.1-44.2-46.4s18.7-46.4 44.2-46.4c25.5 0 44.2 19.1 44.2 46.4.1 2.6-.1 4.9-.3 7.2zm-66.9-15.2h46c-2.3-12.5-10.5-19.6-23-19.6s-20.7 7.1-23 19.6zM599.8 334.1V200.2h21.4V334h-21.4zM682.8 316.2c3 0 6.8-.5 9.8-1.6v19.1c-3.2 1.1-8.9 2.1-14.1 2.1-17.7 0-30.5-7-30.5-30.9v-41.4h-14.3v-18.7H648V218h21.4v26.8h23.2v18.7h-23.2v40c0 8.8 4.1 12.7 13.4 12.7zM442.2 244.9h-17.7v-44.6h-21.4v64.6h37.7c13.7 0 24.8 11.1 24.8 24.8 0 6.1-2.2 11.8-6 16.1-4.5 5.3-11.3 8.7-18.8 8.7h-16.4v-38.9H403v58.6l39.1.3c13.6 0 25.8-6.1 34-15.7 6.7-7.8 10.7-18 10.7-29.1.2-24.8-19.8-44.8-44.6-44.8z"/>
    <path d="M153.7 200.2h71.6c25 0 47.4-11.2 62.4-28.8 12.3-14.3 19.7-32.9 19.7-53.3 0-45.3-36.7-82.1-82.1-82.1h-32.4V0h-39.2v72.7h69.2c25.1 0 45.4 20.3 45.4 45.4 0 11.2-4.1 21.6-10.9 29.5-8.3 9.7-20.7 15.9-34.5 15.9h-69.2v36.7z" fill="#4164ff"/>
    <path class="logo--st0" d="M153.7 0 82.1-.5c-25 0-47.4 11.2-62.4 28.8C7.4 42.6 0 61.2 0 81.6c0 45.3 36.7 82.1 82.1 82.1h71.6V127H84.5c-25.1 0-45.4-20.3-45.4-45.4C39.1 70.4 43.2 60 50 52c8.3-9.7 20.7-15.9 34.5-15.9h69.2V0zM701.9 255c0-5.1 4.1-9.4 9.3-9.4 5.2 0 9.3 4.2 9.3 9.3 0 5.1-4.1 9.4-9.3 9.4-5.2 0-9.3-4.2-9.3-9.3zm17.6-.1c0-4.6-3.5-8.4-8.2-8.4-4.7 0-8.2 3.8-8.2 8.4 0 4.6 3.5 8.3 8.2 8.3 4.6.1 8.2-3.7 8.2-8.3zm-12.3-5.1h4.7c2.4 0 4.1 1 4.1 3.3 0 1.5-.8 2.6-2 3.1l2.4 3.4h-3.2l-2-3H710v3h-2.8v-9.8zm4.6 4.7c1 0 1.5-.5 1.5-1.2 0-.8-.5-1.2-1.5-1.2H710v2.4h1.8z"/>
</svg>
