<svg xmlns="http://www.w3.org/2000/svg" viewBox="0 0 143 143" xml:space="preserve">
    <path d="M30 0h83c16.6 0 30 13.4 30 30v83c0 16.6-13.4 30-30 30H30c-16.6 0-30-13.4-30-30V30C0 13.4 13.4 0 30 0z" fill="#4164ff"/>
    <path d="M71.1 104.5h23.6c14.9 0 27-12.1 27-27s-12.1-27-27-27H84V38.6H71.1v23.9h22.8c8.3 0 14.9 6.7 15 14.9 0 8.3-6.7 14.9-14.9 15H71.1v12.1z" fill="#323232"/>
    <path d="m71.1 38.6-23.6-.2c-14.9 0-27 12.1-27 27s12.1 27 27 27h23.6v-12H48.4c-8.3.1-15-6.6-15.1-14.8s6.6-15 14.8-15.1h23V38.6z" fill="#fff"/>
</svg>
