<svg version="1.1" id="icon-select"
  xmlns="http://www.w3.org/2000/svg" x="0" y="0" viewBox="0 0 215.2 235" xml:space="preserve">
  <style>
    .icon-select--st0{fill:#afc8ff}.icon-select--st3{fill:#fff}.icon-select--st4{fill:#323232}.icon-select--st5{fill:#e6e6e6}
    .icon-select--animate-opacity {
      animation: animateOpacity 5s infinite;
    }
    @keyframes animateOpacity {
      0%,
      17.5%,
      95%,
      100% {
        opacity: 0;
      }
      37.5%,
      75% {
        opacity: 1;
      }
    }
  </style>
  <defs>
    <linearGradient id="iconSelectGradient" x1="100%" y1="100%">
      <stop offset="0%" stop-color="#323232" stop-opacity="1">
        <animate attributeName="stop-color" values="#323232;#323232;#e62d37;#e62d37;#e62d37;#e62d37;#323232;#323232" dur="5s" repeatCount="indefinite" />
      </stop>
      <stop offset="100%" stop-color="#323232" stop-opacity="1">
        <animate attributeName="stop-color" values="#323232;#323232;#e62d37;#e62d37;#e62d37;#e62d37;#323232;#323232" dur="5s" repeatCount="indefinite" />
        <!-- <animate attributeName="offset" values=".95;.80;.60;.40;.20;0;.20;.40;.60;.80;.95" dur="14s" repeatCount="indefinite" /> -->
      </stop>
    </linearGradient>
  </defs>
  <path class="icon-select--st0" d="M34 179.6v-47.9c.1-3.5-2.3-6.6-5.7-7.4-3.9-.7-7.6 1.8-8.3 5.7-.1.5-.1 1-.1 1.4v48.1l-6-6.2c-2.7-2.9-7.1-3-10-.4-.2.1-.3.3-.4.5-2.4 2.8-2.3 6.9.1 9.6l21.8 27.1v16.3c-.1 4.7 3.7 8.5 8.3 8.6h26.2c4.7-.1 8.4-3.9 8.3-8.6V213s8.2-6.9 8.2-21.6V169c.1-3.5-2.3-6.6-5.7-7.4-3.9-.7-7.6 1.8-8.3 5.6-.1.5-.1 1-.1 1.5v10.9"/>
  <path class="icon-select--st0" d="M48.1 179.6v-20.4c.1-3.9-3.1-7.2-7.1-7.2-3.9.1-7.1 3.3-7.1 7.2v20.4"/>
  <path class="icon-select--st0" d="M62.3 179.6v-15.7c.1-3.9-3.1-7.2-7.1-7.2-3.9 0-7.1 3.3-7.1 7.2v15.7"/>
  <path fill="#4164ff" d="M2.4 83.6h54.4V138H2.4z" class="icon-select--animate-opacity"/>
  <path d="M56.7 140.4h-54c-1.5 0-2.7-1.2-2.7-2.7v-54C0 82.2 1.2 81 2.7 81h54c1.5 0 2.7 1.2 2.7 2.7v54c0 1.5-1.2 2.7-2.7 2.7zM5.4 135H54V86.4H5.4V135z" fill="url(#iconSelectGradient)"/>
  <path class="icon-select--st3" d="M44 178.3v-46.7c.1-3.4-2.3-6.4-5.7-7.2-3.8-.8-7.6 1.7-8.3 5.5-.1.5-.1.9-.1 1.4v47l-6-6c-2.8-2.9-7.3-3-10.2-.2l-.3.3c-2.4 2.7-2.3 6.7.2 9.3l21.8 26.4V224c0 4.6 3.7 8.3 8.3 8.3h26.2c4.6 0 8.3-3.7 8.3-8.3v-13.1s8.2-6.7 8.2-21.1v-21.9c.1-3.4-2.3-6.4-5.7-7.2-3.8-.8-7.5 1.7-8.3 5.5-.1.5-.1.9-.1 1.4v10.6"/>
  <path class="icon-select--st4" d="M69.9 235H43.7c-6.1 0-11-4.9-11-11v-15l-21.2-25.7c-3.3-3.6-3.3-9.1-.1-12.8 1.7-2 4.2-3.1 6.8-3.2 2.8-.1 5.6 1 7.6 3l1.4 1.4v-40.4c0-5.4 4.4-9.8 9.8-9.8.6 0 1.3.1 1.9.2 4.6 1 7.9 5.1 7.9 9.8v46.7c0 1.5-1.2 2.7-2.7 2.7s-2.7-1.2-2.7-2.7v-46.7c.1-2.1-1.4-4-3.5-4.5-2.4-.5-4.7 1-5.2 3.4-.1.3-.1.6-.1.9v47c0 1.5-1.2 2.7-2.7 2.7-.7 0-1.4-.3-1.9-.8l-6-6c-.9-1-2.2-1.5-3.6-1.4-1.1 0-2.2.5-2.9 1.3-1.4 1.7-1.4 4.1.1 5.7l21.9 26.5c.4.5.6 1.1.6 1.7v15.9c0 3.1 2.5 5.6 5.6 5.6h26.2c3.1 0 5.6-2.5 5.6-5.6v-13.1c0-.8.4-1.6 1-2.1.3-.2 7.2-6.2 7.2-19v-21.9c.1-2.1-1.4-4-3.5-4.5-2.4-.5-4.7 1-5.1 3.4-.1.3-.1.6-.1.9v10.6c0 1.5-1.2 2.7-2.7 2.7-1.5 0-2.7-1.2-2.7-2.7v-10.6c0-5.4 4.4-9.8 9.8-9.8.6 0 1.3.1 1.9.2 4.6 1 7.9 5.1 7.8 9.8v21.9c0 12.6-5.8 19.8-8.2 22.2v11.9c0 6.2-4.9 11.2-11 11.2z"/>
  <path class="icon-select--st3" d="M58.1 178.3v-19.9c0-3.9-3.2-7.1-7.1-7.1-3.9 0-7.1 3.2-7.1 7.1v19.9"/>
  <path class="icon-select--st4" d="M58.1 181c-1.5 0-2.7-1.2-2.7-2.7v-19.9c0-2.4-2-4.4-4.4-4.4s-4.4 2-4.4 4.4v20c0 1.5-1.2 2.7-2.7 2.7-1.5 0-2.7-1.2-2.7-2.7v-19.9c0-5.4 4.4-9.8 9.8-9.8s9.8 4.4 9.8 9.8v20c0 1.3-1.2 2.5-2.7 2.5z"/>
  <path class="icon-select--st3" d="M72.2 178.3V163c0-3.9-3.2-7.1-7.1-7.1-3.9 0-7.1 3.2-7.1 7.1v15.3"/>
  <path class="icon-select--st4" d="M72.3 181c-1.5 0-2.7-1.2-2.7-2.7V163c.1-2.4-1.9-4.4-4.3-4.4-2.4-.1-4.4 1.9-4.4 4.3v15.5c0 1.5-1.2 2.7-2.7 2.7-1.5 0-2.7-1.2-2.7-2.7v-15.3c0-5.4 4.4-9.8 9.8-9.8s9.8 4.4 9.8 9.8v15.3c-.2 1.4-1.4 2.6-2.8 2.6z"/>
  <path class="icon-select--st4" d="M56.7 59.4h-54c-1.5 0-2.7-1.2-2.7-2.7v-54C0 1.2 1.2 0 2.7 0h54c1.5 0 2.7 1.2 2.7 2.7v54c0 1.5-1.2 2.7-2.7 2.7zM5.4 54H54V5.4H5.4V54z"/>
  <g>
    <path class="icon-select--st5" d="M74.6 85.5h123.3c1.3 0 2.3 1 2.3 2.3v7.9c0 1.3-1 2.3-2.3 2.3H74.6c-1.3 0-2.3-1-2.3-2.3v-7.9c0-1.2 1-2.3 2.3-2.3z"/>
    <path class="icon-select--st5" d="M74.6 123.3h138.3c1.3 0 2.3 1 2.3 2.3v7.9c0 1.3-1 2.3-2.3 2.3H74.6c-1.3 0-2.3-1-2.3-2.3v-7.9c0-1.2 1-2.3 2.3-2.3z"/>
    <path class="icon-select--st5" d="M74.6 104.4h105.7c1.3 0 2.3 1 2.3 2.3v7.9c0 1.3-1 2.3-2.3 2.3H74.6c-1.3 0-2.3-1-2.3-2.3v-7.9c0-1.2 1-2.3 2.3-2.3z"/>
    <path class="icon-select--st5" d="M74.6 4.5h123.3c1.3 0 2.3 1 2.3 2.3v7.9c0 1.3-1 2.3-2.3 2.3H74.6c-1.3 0-2.3-1-2.3-2.3V6.8c0-1.3 1-2.3 2.3-2.3z"/>
    <path class="icon-select--st5" d="M74.6 42.3h138.3c1.3 0 2.3 1 2.3 2.3v7.9c0 1.3-1 2.3-2.3 2.3H74.6c-1.3 0-2.3-1-2.3-2.3v-7.9c0-1.2 1-2.3 2.3-2.3z"/>
    <path class="icon-select--st5" d="M74.6 23.4h105.7c1.3 0 2.3 1 2.3 2.3v7.9c0 1.3-1 2.3-2.3 2.3H74.6c-1.3 0-2.3-1-2.3-2.3v-7.9c0-1.2 1-2.3 2.3-2.3z"/>
  </g>
  <g class="icon-select--animate-opacity icon-select--st3">
    <path transform="rotate(-45 19.6607645 116.4352113)" d="M17.2 107.8h4.9V125h-4.9z"/>
    <path transform="rotate(-45 34.2090782 110.8871998)" d="M17.8 108.5h32.9v4.9H17.8z"/>
  </g>
</svg>
