<svg version="1.1" id="icon-contractor"
  xmlns="http://www.w3.org/2000/svg" x="0" y="0" viewBox="0 0 247.9 214.3" xml:space="preserve">
  <style>.icon-contractor--st1{fill:#fff}.icon-contractor--st2{fill:#323232}</style>
  <path d="m80.5 105.7-45.7 23.8c-1.1.6-2 1.7-2.2 3l-12.1 61.3c-.5 2.5 1 5 3.5 5.7 59.1 16.3 117.7 14.1 176.1-1.2l-11.7-58.7-47.9-25.9v-13.1c3.1-5.3 5.4-11.1 6.7-17.1h1.8s9.5-3.8 10.8-10.6c1.8-9.3-6.8-10-6.8-10h-3c.3-6.8.1-13.6-.5-20.3 0-21.5-17.5-38.9-39-38.9C89 3.5 71.6 20.9 71.6 42.4c-.7 6.7-.9 13.5-.5 20.3h-3.4s-7.6.6-6.8 10c1 13.2 15.5 19.1 15.5 19.1.4 3.9 2.1 10.4 4.1 13.9z" fill="#afc8ff"/>
  <g>
    <path class="icon-contractor--st1" d="m92.6 113.5-47.9 25.9L33 198.1c59.8 15.8 119.9 17.7 180.5 0L201.8 137l-47.5-22.4"/>
    <path class="icon-contractor--st2" d="M125.6 214.3c-30.2 0-61.2-4.2-93.4-12.7-1.8-.5-2.9-2.2-2.5-4l11.7-58.7c.2-1 .8-1.9 1.8-2.4l47.8-26c1.7-.9 3.8-.3 4.7 1.4.9 1.7.3 3.8-1.4 4.7l-46.4 25.2-10.7 53.9c60.8 15.6 117.3 15.6 172.4.1l-10.8-56.4-45.9-21.7c-1.7-.8-2.5-2.9-1.7-4.6s2.9-2.5 4.6-1.7h.1l47.5 22.4c1 .5 1.7 1.4 1.9 2.5l11.7 61.2c.3 1.8-.7 3.5-2.4 4-29 8.5-58.9 12.8-89 12.8z"/>
    <path class="icon-contractor--st1" d="M123.9 117.4 108 137l-14.4-11.9V99.7"/>
    <path class="icon-contractor--st2" d="M108 140.5c-.8 0-1.6-.3-2.2-.8l-14.4-11.9c-.8-.7-1.3-1.6-1.3-2.7V99.7c0-1.9 1.6-3.5 3.5-3.5s3.5 1.6 3.5 3.5v23.7l10.4 8.6 13.8-16.9c1.2-1.5 3.4-1.7 4.9-.4 1.4 1.2 1.7 3.4.5 4.8l-16 19.6c-.6.7-1.4 1.2-2.4 1.3-.1 0-.2.1-.3.1z"/>
    <path class="icon-contractor--st1" d="m124 117.4 16 19.6 14.4-11.9V99.7"/>
    <path class="icon-contractor--st2" d="M139.9 140.5h-.3c-.9-.1-1.8-.5-2.4-1.3l-16-19.6c-1.2-1.5-1-3.7.4-4.9 1.5-1.2 3.7-1 4.9.4l.1.1 13.7 16.9 10.4-8.6V99.7c0-1.9 1.6-3.5 3.5-3.5s3.5 1.6 3.5 3.5v25.4c0 1-.5 2-1.3 2.7L142 139.7c-.5.5-1.3.8-2.1.8z"/>
    <path class="icon-contractor--st1" d="M123.9 117.4c-48 0-38.9-75-38.9-75 0-21.5 17.4-38.9 38.9-38.9s38.9 17.4 38.9 38.9c.1 0 9.2 75-38.9 75z"/>
    <path class="icon-contractor--st2" d="M124 120.9c-11.6 0-21.2-4.1-28.3-12.2C76.8 87.5 81.1 46 81.5 42.2 81.6 18.8 100.7-.1 124.2 0c23.3.1 42.1 18.9 42.2 42.2.4 3.7 4.7 45.3-14.1 66.5-7.2 8.1-16.7 12.2-28.3 12.2zM124 7c-19.6 0-35.4 15.9-35.5 35.5v.4c-.1.4-4.8 41.9 12.4 61.3 5.9 6.6 13.4 9.8 23.1 9.8s17.3-3.2 23.1-9.8c17.2-19.4 12.4-60.8 12.4-61.3v-.4C159.4 22.8 143.5 7 124 7z"/>
    <path class="icon-contractor--st2" d="M177.8 65.6c-.4 0-.8-.1-1.1-.2-34.1-11.9-71.3-11.9-105.5 0-1.8.6-3.8-.4-4.4-2.2-.6-1.8.4-3.8 2.2-4.4 36.5-12.4 73.5-12.4 109.9 0 1.8.6 2.8 2.6 2.2 4.4-.5 1.5-1.8 2.4-3.3 2.4z"/>
    <path class="icon-contractor--st2" d="M140.6 56.4c-1.9 0-3.5-1.6-3.5-3.5 0-30.2 10.8-40.6 11.3-41 1.4-1.3 3.6-1.2 4.9.2s1.2 3.6-.2 4.9c-.2.2-9.1 9.4-9.1 36 .1 1.9-1.4 3.4-3.4 3.4z"/>
    <path class="icon-contractor--st2" d="M107.3 56.4c-1.9 0-3.5-1.6-3.5-3.5 0-26.7-9-35.9-9.1-36-1.4-1.3-1.4-3.5-.1-4.9 1.3-1.3 3.4-1.4 4.8-.1.5.4 11.3 10.8 11.3 41 0 2-1.5 3.5-3.4 3.5z"/>
    <path d="M118.6 45.3c-1.6 0-2.9-1.3-2.9-2.9 0-.8.3-1.5.9-2.1L124 33h-5.1c-1.6 0-2.9-1.3-2.9-2.9 0-.8.3-1.5.9-2.1L129 15.9c1.2-1.1 3-1.1 4.1.1 1.1 1.1 1.1 2.9 0 4.1l-7.1 7.1h5.1c1.6 0 2.9 1.3 2.9 2.9 0 .8-.3 1.5-.9 2.1l-12.4 12.4c-.5.4-1.3.7-2.1.7z" fill="#4164ff"/>
    <path class="icon-contractor--st2" d="M124 214.2c-1.9 0-3.5-1.6-3.5-3.5v-90.4c0-1.9 1.6-3.5 3.5-3.5s3.5 1.6 3.5 3.5v90.4c-.1 2-1.6 3.5-3.5 3.5z"/>
    <path class="icon-contractor--st2" d="M162.5 86.8c-1.9 0-3.5-1.6-3.5-3.5 0-1.4.9-2.7 2.2-3.2 2.1-.9 7.9-4 8.6-8 .4-1.9.2-3.3-.5-4.2-.8-.9-2-1.6-3.2-1.7-1.9-.2-3.3-1.9-3.1-3.8.2-1.9 1.9-3.3 3.7-3.1 3.2.3 6.1 1.9 8.1 4.4 1.3 1.8 2.7 4.9 1.8 9.7-1.6 8.4-11.7 12.7-12.9 13.2-.4.1-.8.2-1.2.2z"/>
    <path class="icon-contractor--st2" d="M85 86.8c-.4 0-.9-.1-1.3-.3-1.1-.5-11.3-4.7-12.9-13.2-.9-4.8.5-8 1.8-9.7 2-2.5 4.9-4.1 8.1-4.4 1.9-.2 3.6 1.3 3.8 3.2.2 1.9-1.2 3.5-3.1 3.7-1.2.2-2.4.8-3.2 1.7-.7.9-.9 2.4-.5 4.2.8 4 6.6 7.2 8.6 8 1.8.7 2.7 2.7 1.9 4.5-.5 1.5-1.8 2.3-3.2 2.3z"/>
    <path class="icon-contractor--st2" d="M71.6 208.1c-1.9 0-3.5-1.6-3.5-3.5v-30c0-1.9 1.6-3.5 3.5-3.5s3.5 1.6 3.5 3.5v30c0 2-1.6 3.5-3.5 3.5z"/>
    <path class="icon-contractor--st2" d="M175 208.6c-1.9 0-3.5-1.6-3.5-3.5v-30.5c0-1.9 1.6-3.5 3.5-3.5s3.5 1.6 3.5 3.5v30.5c0 1.9-1.6 3.5-3.5 3.5z"/>
  </g>
  <g fill="#ffb90a">
    <path d="m36.5 30.9 5.1 10.3c.2.4.5.6 1 .7l11.3 1.6c.7.1 1.2.7 1.1 1.4 0 .3-.2.5-.4.7l-8.2 8c-.3.3-.4.7-.4 1.1L47.9 66c.1.7-.3 1.4-1 1.5-.3 0-.6 0-.8-.1L36 62.1c-.4-.2-.8-.2-1.2 0l-10.1 5.3c-.6.3-1.4.1-1.7-.5-.1-.2-.2-.5-.1-.8l1.9-11.3c.1-.4-.1-.8-.4-1.1l-8.2-8c-.5-.5-.5-1.3 0-1.8.2-.2.5-.3.7-.4l11.3-1.6c.4-.1.8-.3 1-.7l5.1-10.3c.3-.6 1.1-.9 1.7-.6.2.1.4.3.5.6z"/>
    <path d="m213.7 30.9 5.1 10.3c.2.4.5.6 1 .7l11.3 1.6c.7.1 1.2.7 1.1 1.4 0 .3-.2.5-.4.7l-8.2 8c-.3.3-.4.7-.4 1.1l1.9 11.3c.1.7-.4 1.4-1 1.5-.3 0-.6 0-.8-.1l-10.1-5.3c-.4-.2-.8-.2-1.2 0l-10.1 5.3c-.6.3-1.4.1-1.7-.5-.1-.2-.2-.5-.1-.8l1.9-11.3c.1-.4-.1-.8-.4-1.1l-8.2-8c-.5-.5-.5-1.3 0-1.8.2-.2.5-.3.7-.4l11.3-1.6c.4-.1.8-.3 1-.7l5.1-10.3c.3-.6 1.1-.9 1.7-.6.2.1.4.3.5.6z"/>
    <path d="m20.8 79.6 5.1 10.3c.2.4.5.6 1 .7l11.3 1.6c.7.1 1.2.7 1.1 1.4 0 .3-.2.5-.4.7l-8.2 8c-.3.3-.4.7-.4 1.1l1.9 11.3c.1.7-.3 1.4-1 1.5-.3 0-.6 0-.8-.1l-10.1-5.3c-.4-.2-.8-.2-1.2 0L9 116.1c-.6.3-1.4.1-1.7-.5-.3-.2-.3-.5-.3-.8l2-11.3c.1-.4-.1-.8-.4-1.1l-8.2-8c-.5-.5-.5-1.3 0-1.8.2-.2.5-.3.7-.4l11.3-1.6c.4-.1.8-.3 1-.7l5.1-10.3c.3-.6 1.1-.9 1.7-.6.2.1.4.3.6.6z"/>
    <path d="m229.5 79.6 5.1 10.3c.2.4.5.6 1 .7l11.3 1.6c.7.1 1.2.7 1.1 1.4 0 .3-.2.5-.4.7l-8.2 8c-.3.3-.4.7-.4 1.1l1.9 11.3c.1.7-.3 1.4-1 1.5-.3 0-.6 0-.8-.1l-10.1-5.3c-.4-.2-.8-.2-1.2 0l-10.1 5.3c-.6.3-1.4.1-1.7-.5-.1-.2-.2-.5-.1-.8l1.9-11.3c.1-.4-.1-.8-.4-1.1l-8.2-8c-.5-.5-.5-1.3 0-1.8.2-.2.5-.3.7-.4l11.3-1.6c.4-.1.8-.3 1-.7l5.1-10.3c.3-.6 1.1-.9 1.7-.6.1.1.3.3.5.6z"/>
  </g>
</svg>
