<svg version="1.1" id="icon-money"
  xmlns="http://www.w3.org/2000/svg" x="0" y="0" viewBox="0 0 188.2 132.9" xml:space="preserve">
  <style>
    .icon-money--st1{fill:#fff}.icon-money--st2{fill:#323232}.icon-money--st3{fill:#4164ff}
    .icon-money--arrow {
      animation: arrowAnimation 5s infinite;
    }
    @keyframes arrowAnimation {
      0%,
      10% {
        opacity: 0;
        transform: translateY(-10%);
      }
      30%,
      40% {
        opacity: 1;
        transform: translateY(0);
      }
      50%, 100% {
        opacity: 0;
        transform: translateY(5%);
      }
    }
  </style>
  <path d="m38.1 16-23 23.7c-5.5 5.5-8.6 17.1-8.6 25V114h57.7V96.5c7.1-2.6 11.7-13.9 13.9-20.5l-40-60z" fill="#afc8ff"/>
  <path class="icon-money--st1" d="m39.7 31.6-13 12.2c-5.5 5.5-8.6 13-8.6 20.9V114h57.7V96.5c7.1-2.6 11.7-13.9 13.9-20.5"/>
  <path class="icon-money--st2" d="M75.8 117.5H18.1c-2 0-3.6-1.6-3.6-3.6V64.6c0-8.8 3.5-17.2 9.7-23.4l13-12.3c1.5-1.4 3.7-1.3 5.1.2 1.4 1.5 1.3 3.7-.2 5.1l-13 12.2c-4.8 4.9-7.5 11.4-7.5 18.2v45.6h50.5V96.5c0-1.5.9-2.9 2.3-3.4 4.1-1.5 8.4-8.2 11.8-18.3.6-1.9 2.6-3 4.5-2.4 1.9.6 3 2.6 2.4 4.5v.1c-3.7 11.1-8.3 18.4-13.7 21.6v15.2c0 2.1-1.6 3.7-3.6 3.7z"/>
  <path class="icon-money--st2" d="M89.7 132.9c-2 0-3.6-1.6-3.6-3.6v-11.8H7.2v11.8c0 2-1.6 3.6-3.6 3.6S0 131.3 0 129.3v-15.4c0-2 1.6-3.6 3.6-3.6h86.1c2 0 3.6 1.6 3.6 3.6v15.4c0 2-1.6 3.6-3.6 3.6z"/>
  <path class="icon-money--st1" d="M40.3 3.6h144.3v72.2H40.3z"/>
  <path class="icon-money--st3" d="M184.6 79.4H40.3c-2 0-3.6-1.6-3.6-3.6V3.6c0-2 1.6-3.6 3.6-3.6h144.3c2 0 3.6 1.6 3.6 3.6v72.2c0 2-1.6 3.6-3.6 3.6zM43.9 72.2H181v-65H43.9v65z"/>
  <path class="icon-money--st3" d="M112.4 61.3c-12 0-21.6-9.7-21.6-21.6 0-12 9.7-21.6 21.6-21.6 12 0 21.6 9.7 21.6 21.6.1 11.9-9.6 21.6-21.6 21.6zm0-36c-8 0-14.4 6.5-14.4 14.4s6.5 14.4 14.4 14.4 14.4-6.5 14.4-14.4c0-8-6.4-14.4-14.4-14.4z"/>
  <g>
    <path class="icon-money--st1" d="m35.9 76.6 23.8-25.3c3.9-3.9 10.4-4 14 .1 3.1 3.6 3.1 9-.2 12.5L60.9 76.8s8.4 10 0 19.7"/>
    <path class="icon-money--st2" d="M60.9 100.1c-2 0-3.6-1.6-3.6-3.6 0-.9.3-1.7.9-2.4 6.1-7 .6-14.2-.1-15-1.2-1.4-1.1-3.5.2-4.8l12.6-12.9c2-2.1 2-5.4.1-7.6-1-1.1-2.4-1.8-3.9-1.8-1.8-.1-3.5.6-4.8 1.9L38.5 79.1c-1.4 1.4-3.7 1.5-5.1.1-1.4-1.4-1.5-3.6-.1-5l23.9-25.3c2.7-2.7 6.4-4.2 10.2-4.1 3.5.1 6.8 1.6 9.1 4.3 4.3 5 4.2 12.5-.3 17.3L65.6 77.2c2.9 5.2 4.9 13.8-1.9 21.6-.7.8-1.7 1.3-2.8 1.3z"/>
  </g>
  <path class="icon-money--arrow" d="M179.3 99.4c-1.4-1.4-3.7-1.4-5.1 0L156 117.6V54.1c0-2-1.6-3.6-3.6-3.6s-3.6 1.6-3.6 3.6v63.5l-19.4-19.4c-1.4-1.4-3.7-1.3-5.1.1-1.3 1.4-1.3 3.6 0 5l25.5 25.5c1.4 1.4 3.7 1.4 5.1 0l24.4-24.4c1.4-1.4 1.4-3.6 0-5z" fill="#e62d37"/>
</svg>
