<svg xmlns="http://www.w3.org/2000/svg" viewBox="0 0 20.373 25">
    <g data-name="Group 300" fill="#fff">
        <path data-name="Path 630" d="M19.744 10.082c-3.95 2.243-3.493 7.257.63 8.917-.121.293-.235.592-.367.884a13.982 13.982 0 0 1-2.7 3.9 4.985 4.985 0 0 1-.387.351 3.416 3.416 0 0 1-3.477.622c-.3-.1-.589-.216-.881-.328a5.241 5.241 0 0 0-3.7-.039c-.454.157-.9.339-1.362.473a3.016 3.016 0 0 1-2.729-.462 9.232 9.232 0 0 1-1.706-1.714 13.391 13.391 0 0 1-2.872-6.138 8.2 8.2 0 0 1 .393-4.88 6.014 6.014 0 0 1 4.333-3.581 5.5 5.5 0 0 1 3.2.185c.491.174.986.338 1.479.506a2.215 2.215 0 0 0 1.486 0c.611-.213 1.221-.436 1.844-.616a6.4 6.4 0 0 1 5.813.988 10.746 10.746 0 0 1 1.003.932Z"/>
        <path data-name="Path 631" d="M9.148 7.504a6.5 6.5 0 0 1 1.466-4.671A7.224 7.224 0 0 1 15.642 0c.524 3.329-2.542 7.721-6.494 7.504Z"/>
    </g>
</svg>
