<svg xmlns="http://www.w3.org/2000/svg" width="215.208" height="234.985" viewBox="0 0 215.208 234.985">
  <g id="Group_266" data-name="Group 266" transform="translate(-789.789 -325.851)">
    <g id="Group_269" data-name="Group 269" transform="translate(791.489 450.094)">
      <g id="Group_266-2" data-name="Group 266">
        <path id="Path_601" data-name="Path 601" d="M823.125,427.221V379.358a7.379,7.379,0,0,0-5.664-7.37,7.122,7.122,0,0,0-8.459,7.1v48.131l-6.031-6.182a7.088,7.088,0,0,0-10.461.072,7.29,7.29,0,0,0,.148,9.579l21.789,27.085v16.263a8.453,8.453,0,0,0,8.349,8.555h26.175a8.453,8.453,0,0,0,8.349-8.555V460.621s8.187-6.908,8.187-21.62l.013-22.411a7.375,7.375,0,0,0-5.656-7.367,7.113,7.113,0,0,0-8.451,7.1l-.035,10.9" transform="translate(-790.789 -371.85)" fill="#afc8ff"/>
      </g>
      <g id="Group_267" data-name="Group 267" transform="translate(32.304 27.685)">
        <path id="Path_602" data-name="Path 602" d="M816.856,409.536l.035-20.446a7.148,7.148,0,0,0-7.052-7.24h0a7.149,7.149,0,0,0-7.055,7.24l-.035,20.446" transform="translate(-802.749 -381.85)" fill="#afc8ff"/>
      </g>
      <g id="Group_268" data-name="Group 268" transform="translate(46.447 32.46)">
        <path id="Path_603" data-name="Path 603" d="M822.092,406.485l.035-15.673a7.146,7.146,0,0,0-7.052-7.237h0a7.146,7.146,0,0,0-7.055,7.237l-.035,15.673" transform="translate(-807.985 -383.575)" fill="#afc8ff"/>
      </g>
    </g>
    <g id="Group_270" data-name="Group 270" transform="translate(789.789 325.851)">
      <path id="Path_604" data-name="Path 604" d="M846.509,385.272H792.49a2.7,2.7,0,0,1-2.7-2.7V328.552a2.7,2.7,0,0,1,2.7-2.7h54.019a2.7,2.7,0,0,1,2.7,2.7v54.019A2.7,2.7,0,0,1,846.509,385.272Zm-51.318-5.4h48.617V331.253H795.191Z" transform="translate(-789.789 -325.851)" fill="#323232"/>
    </g>
    <g id="Group_271" data-name="Group 271" transform="translate(789.789 406.88)">
      <rect id="Rectangle_89" data-name="Rectangle 89" width="54.356" height="54.356" transform="translate(2.372 2.595)" fill="#4164ff"/>
      <path id="Path_605" data-name="Path 605" d="M846.509,415.272H792.49a2.7,2.7,0,0,1-2.7-2.7V358.552a2.7,2.7,0,0,1,2.7-2.7h54.019a2.7,2.7,0,0,1,2.7,2.7v54.019A2.7,2.7,0,0,1,846.509,415.272Zm-51.318-5.4h48.617V361.253H795.191Z" transform="translate(-789.789 -355.851)" fill="#e62d37"/>
    </g>
    <g id="Group_276" data-name="Group 276" transform="translate(798.77 447.396)">
      <g id="Group_273" data-name="Group 273">
        <path id="Path_607" data-name="Path 607" d="M826.455,425.869V379.174a7.233,7.233,0,0,0-5.661-7.19,7.07,7.07,0,0,0-8.459,6.928v46.956l-6.034-6.031a7.208,7.208,0,0,0-10.461.07,6.979,6.979,0,0,0,.151,9.345l21.786,26.424v15.866a8.347,8.347,0,0,0,8.349,8.346H852.3a8.345,8.345,0,0,0,8.346-8.346V458.453s8.187-6.739,8.187-21.092l.016-21.864a7.232,7.232,0,0,0-5.656-7.187,7.062,7.062,0,0,0-8.451,6.925l-.035,10.634" transform="translate(-791.405 -369.152)" fill="#fff"/>
        <path id="Path_608" data-name="Path 608" d="M854.013,484.291H827.835a11.061,11.061,0,0,1-11.05-11.05v-14.9L795.618,432.67a9.632,9.632,0,0,1-.114-12.83,9.344,9.344,0,0,1,6.809-3.212,10.38,10.38,0,0,1,7.6,3l1.426,1.426V380.612a9.767,9.767,0,0,1,11.668-9.58,9.9,9.9,0,0,1,7.854,9.842v46.7a2.7,2.7,0,0,1-5.4,0v-46.7a4.551,4.551,0,0,0-3.471-4.535,4.367,4.367,0,0,0-5.248,4.273v46.959a2.7,2.7,0,0,1-4.61,1.91l-6.037-6.037a4.742,4.742,0,0,0-3.592-1.415,4,4,0,0,0-2.917,1.348,4.29,4.29,0,0,0,.087,5.737l21.9,26.545a2.7,2.7,0,0,1,.616,1.718v15.866a5.654,5.654,0,0,0,5.648,5.648h26.178a5.652,5.652,0,0,0,5.645-5.648V460.153a2.7,2.7,0,0,1,.986-2.085c.281-.238,7.2-6.226,7.2-19.007l.016-21.864a4.553,4.553,0,0,0-3.468-4.538,4.363,4.363,0,0,0-5.237,4.276l-.038,10.645a2.7,2.7,0,0,1-2.7,2.693h-.011a2.7,2.7,0,0,1-2.69-2.712l.038-10.636a9.764,9.764,0,0,1,11.66-9.57,9.9,9.9,0,0,1,7.849,9.848l-.016,21.862c0,12.554-5.81,19.8-8.187,22.248v11.93A11.061,11.061,0,0,1,854.013,484.291Z" transform="translate(-793.114 -370.851)" fill="#323232"/>
      </g>
      <g id="Group_274" data-name="Group 274" transform="translate(32.32 27.009)">
        <path id="Path_609" data-name="Path 609" d="M820.186,408.86l.035-19.947a7.058,7.058,0,0,0-7.052-7.063h0a7.061,7.061,0,0,0-7.055,7.063l-.035,19.947" transform="translate(-803.381 -379.152)" fill="#fff"/>
        <path id="Path_610" data-name="Path 610" d="M821.885,413.263h-.005a2.7,2.7,0,0,1-2.7-2.706l.038-19.949a4.354,4.354,0,1,0-8.708.005l-.032,19.955a2.7,2.7,0,0,1-2.7,2.7h-.005a2.7,2.7,0,0,1-2.7-2.706l.032-19.949a9.756,9.756,0,1,1,19.512.005l-.038,19.955A2.7,2.7,0,0,1,821.885,413.263Z" transform="translate(-805.08 -380.851)" fill="#323232"/>
      </g>
      <g id="Group_275" data-name="Group 275" transform="translate(46.462 31.665)">
        <path id="Path_611" data-name="Path 611" d="M825.422,405.926l.038-15.29a7.058,7.058,0,0,0-7.055-7.06h0a7.056,7.056,0,0,0-7.052,7.06l-.038,15.29" transform="translate(-808.617 -380.874)" fill="#fff"/>
        <path id="Path_612" data-name="Path 612" d="M827.124,410.33h-.005a2.7,2.7,0,0,1-2.7-2.706l.032-15.29a4.351,4.351,0,1,0-8.7,0l-.035,15.3a2.7,2.7,0,0,1-2.7,2.7h-.005a2.7,2.7,0,0,1-2.7-2.706l.035-15.29a9.753,9.753,0,1,1,19.507,0l-.032,15.3A2.7,2.7,0,0,1,827.124,410.33Z" transform="translate(-810.316 -382.575)" fill="#323232"/>
      </g>
    </g>
    <g id="Group_277" data-name="Group 277" transform="translate(862.074 411.384)">
      <rect id="Rectangle_90" data-name="Rectangle 90" width="127.916" height="12.595" rx="2.332" fill="#e6e6e6"/>
      <rect id="Rectangle_91" data-name="Rectangle 91" width="142.923" height="12.595" rx="2.332" transform="translate(0 37.816)" fill="#e6e6e6"/>
      <rect id="Rectangle_92" data-name="Rectangle 92" width="110.38" height="12.595" rx="2.332" transform="translate(0 18.908)" fill="#e6e6e6"/>
    </g>
    <g id="Group_278" data-name="Group 278" transform="translate(862.074 330.355)">
      <rect id="Rectangle_93" data-name="Rectangle 93" width="127.916" height="12.595" rx="2.332" fill="#e6e6e6"/>
      <rect id="Rectangle_94" data-name="Rectangle 94" width="142.923" height="12.595" rx="2.332" transform="translate(0 37.816)" fill="#e6e6e6"/>
      <rect id="Rectangle_95" data-name="Rectangle 95" width="110.38" height="12.595" rx="2.332" transform="translate(0 18.908)" fill="#e6e6e6"/>
    </g>
    <g id="Group_280" data-name="Group 280" transform="translate(2.872 1.963)">
      <g id="Group_178" data-name="Group 178" transform="translate(798.77 432.514)">
        <rect id="Rectangle_76" data-name="Rectangle 76" width="4.867" height="17.22" transform="translate(0 3.441) rotate(-45)" fill="#fff"/>
      </g>
      <g id="Group_179" data-name="Group 179" transform="translate(807.77 421.417)">
        <rect id="Rectangle_77" data-name="Rectangle 77" width="4.867" height="32.913" transform="translate(23.273 0) rotate(45)" fill="#fff"/>
      </g>
    </g>
  </g>
</svg>
