<svg version="1.1" id="icon-calendar"
  xmlns="http://www.w3.org/2000/svg" x="0" y="0" viewBox="0 0 266 194.8" xml:space="preserve">
  <style>
    .icon-calendar--x-1 {
      animation: calendarX3 7.5s infinite;
      transform-origin: 34.9% 84%;
    }
    .icon-calendar--x-2 {
      animation: calendarX2 7.5s infinite;
      transform-origin: 82% 49.2%;
    }
    .icon-calendar--x-3 {
      animation: calendarX1 7.5s infinite;
      transform-origin: 66% 49.2%;
    }
    @keyframes calendarX1 {
      0%,
      48%,
      100% {
        opacity: 0;
        transform: scale(0.5);
      }
      54%,
      96% {
          opacity: 1;
          transform: scale(1);
      }
    }
    @keyframes calendarX2 {
      0%,
      58%,
      100% {
        opacity: 0;
        transform: scale(0.5);
      }
      64%,
      96% {
          opacity: 1;
          transform: scale(1);
      }
    }
    @keyframes calendarX3 {
      0%,
      68%,
      100% {
        opacity: 0;
        transform: scale(0.5);
      }
      74%,
      96% {
          opacity: 1;
          transform: scale(1);
      }
    }
  </style>
  <path d="M0 34.6v146.6c0 7.6 6.1 13.7 13.7 13.7h217.9c7.5 0 13.6-6.1 13.7-13.7V34.6c0-7.6-6.2-13.7-13.7-13.7H13.7C6.1 20.9 0 27 0 34.6z" fill="#afc8ff"/>
  <g>
    <path d="M26.3 191.3c-5.6 0-10.2-4.6-10.2-10.2V34.6c0-5.6 4.6-10.2 10.2-10.2h216.1c5.6 0 10.2 4.6 10.2 10.2v146.5c0 5.6-4.6 10.2-10.2 10.2H26.3z" fill="#fff"/>
    <g fill="#323232">
      <path d="M242.4 27.9c3.7 0 6.7 3 6.7 6.7v146.5c0 3.7-3 6.7-6.7 6.7H26.3c-3.7 0-6.7-3-6.7-6.7V34.6c0-3.7 3-6.7 6.7-6.7h216.1m0-7H26.3c-7.5 0-13.7 6.1-13.7 13.7v146.6c0 7.6 6.1 13.7 13.7 13.7h216.2c7.5 0 13.6-6.1 13.7-13.7V34.6c-.1-7.6-6.2-13.7-13.8-13.7z"/>
      <path d="M64.8 41.8c-11.5 0-20.9-9.3-20.9-20.9C43.9 9.4 53.3 0 64.8 0c11.5 0 20.9 9.3 20.9 20.9 0 1.9-1.5 3.5-3.4 3.5s-3.5-1.5-3.5-3.4v-.1C78.7 13.2 72.5 7 64.8 7s-13.9 6.2-13.9 13.9 6.2 13.9 13.9 13.9c1.9 0 3.5 1.6 3.4 3.5 0 1.9-1.5 3.4-3.4 3.5z"/>
      <path d="M203.8 41.8c-11.5 0-20.9-9.4-20.9-20.9S192.3 0 203.8 0c11.5 0 20.9 9.3 20.9 20.9 0 1.9-1.5 3.5-3.4 3.5s-3.5-1.5-3.5-3.4v-.1c0-7.7-6.2-13.9-13.9-13.9S190 13.2 190 20.9s6.2 13.9 13.9 13.9c1.9 0 3.5 1.5 3.5 3.4s-1.5 3.5-3.4 3.5c-.1.1-.1.1-.2.1z"/>
      <path d="M133.9 41.8c-11.5 0-20.9-9.4-20.9-20.9S122.3 0 133.9 0c11.5 0 20.9 9.3 20.9 20.9 0 1.9-1.6 3.5-3.5 3.5s-3.5-1.6-3.5-3.5c0-7.7-6.2-13.9-13.9-13.9S120 13.2 120 20.9s6.2 13.9 13.9 13.9c1.9 0 3.5 1.5 3.5 3.4s-1.5 3.5-3.4 3.5l-.1.1z"/>
    </g>
  </g>
  <g fill="#e6e6e6">
    <path d="M32.9 81h37.2v29.8H32.9z"/>
    <path d="M32.9 114.9h37.2v29.8H32.9z"/>
    <path d="M32.9 148.8h37.2v29.8H32.9z"/>
    <path d="M74.4 81h37.2v29.8H74.4z"/>
    <path d="M74.4 114.9h37.2v29.8H74.4z"/>
    <path d="M74.2 148.8h37.2v29.8H74.2z"/>
    <path d="M115.8 81H153v29.8h-37.2z"/>
    <path d="M115.8 114.9H153v29.8h-37.2z"/>
    <path d="M115.7 148.8h37.2v29.8h-37.2z"/>
    <path d="M157.2 81h37.2v29.8h-37.2z"/>
    <path d="M157.2 114.9h37.2v29.8h-37.2z"/>
    <path d="M156.9 148.8h37.2v29.8h-37.2z"/>
    <path d="M198.7 81h37.2v29.8h-37.2z"/>
    <path d="M198.7 114.9h37.2v29.8h-37.2z"/>
    <path d="M198.7 148.8h37.2v29.8h-37.2z"/>
  </g>
  <path d="M49.6 52.7h169.6c1.3 0 2.4 1.1 2.4 2.4v11.7c0 1.3-1.1 2.4-2.4 2.4H49.6c-1.3 0-2.4-1.1-2.4-2.4V55.1c0-1.3 1.1-2.4 2.4-2.4z" fill="#4164ff"/>
  <g fill="#ffb90a">
    <path class="icon-calendar--x-3" d="m193.6 82.1-3.9-3.9L175.8 92 162 78.1l-3.9 3.9 13.8 13.8-13.9 14 3.9 3.9 13.8-13.8 13.8 13.8 3.9-3.9L179.6 96l14-13.9z"/>
    <path class="icon-calendar--x-2" d="m235.9 82.1-3.9-3.9L218.1 92l-13.8-13.8-3.9 3.9 13.8 13.8-13.8 13.8 3.9 3.9 13.8-13.8 13.8 13.8 3.9-3.9L222 95.9l13.9-13.8z"/>
    <path class="icon-calendar--x-1" d="m110.6 149.8-3.9-3.9-13.8 13.8-13.8-13.8-3.9 3.9L89 163.6l-14 13.9 3.9 3.9 13.8-13.8 13.8 13.8 3.9-3.9-13.8-13.8 14-13.9z"/>
  </g>
</svg>
