<?xml version="1.0" standalone="no"?>
<!DOCTYPE svg PUBLIC "-//W3C//DTD SVG 20010904//EN"
 "http://www.w3.org/TR/2001/REC-SVG-20010904/DTD/svg10.dtd">
<svg version="1.0" xmlns="http://www.w3.org/2000/svg"
 width="700.000000pt" height="700.000000pt" viewBox="0 0 700.000000 700.000000"
 preserveAspectRatio="xMidYMid meet">
<metadata>
Created by potrace 1.14, written by Peter Selinger 2001-2017
</metadata>
<g transform="translate(0.000000,700.000000) scale(0.100000,-0.100000)"
fill="#000000" stroke="none">
<path d="M1847 5634 c-1 -1 -31 -4 -67 -8 -146 -14 -361 -69 -480 -122 -154
-70 -361 -196 -450 -274 -111 -97 -198 -191 -276 -295 -61 -80 -134 -196 -134
-211 0 -4 -6 -15 -13 -23 -25 -29 -132 -298 -143 -356 -1 -5 -9 -44 -18 -85
-28 -131 -39 -236 -39 -370 -2 -763 502 -1446 1230 -1669 234 -72 313 -79 888
-80 264 0 632 0 818 -1 l337 0 0 -389 0 -389 858 3 c471 1 868 5 882 8 14 3
43 8 64 12 21 3 48 7 60 10 12 3 32 7 46 9 109 21 335 105 440 164 110 61 258
163 311 212 218 203 331 351 438 570 85 176 133 342 167 580 8 60 8 279 -1
360 -17 162 -76 387 -136 518 -16 35 -29 65 -29 67 0 7 -95 172 -112 195 -10
14 -43 59 -74 100 -154 211 -415 420 -662 532 -105 48 -291 106 -414 129 -123
23 -288 29 -748 29 l-255 0 0 376 c0 206 -2 379 -5 384 -4 6 -2475 21 -2483
14z m1653 -1165 l0 -389 763 -1 c756 -1 810 -2 877 -14 19 -4 46 -9 59 -11 42
-8 145 -46 206 -77 178 -89 322 -227 414 -398 42 -78 87 -189 96 -236 3 -15 8
-39 11 -53 3 -14 8 -83 10 -155 5 -185 -29 -331 -113 -485 -117 -216 -316
-381 -553 -459 -135 -44 -200 -47 -1005 -46 l-760 0 -3 388 c-2 360 -3 387
-20 388 -9 0 -372 1 -807 3 l-790 3 -98 26 c-300 80 -539 287 -656 569 -49
118 -66 207 -66 358 0 150 1 161 30 270 82 315 363 593 682 675 112 29 179 31
951 32 l772 0 0 -388z"/>
</g>
</svg>
